<mxfile host="app.diagrams.net" modified="2024-07-01T19:56:18.555Z" agent="Mozilla/5.0 (Windows NT 10.0; Win64; x64) AppleWebKit/537.36 (KHTML, like Gecko) Chrome/126.0.0.0 Safari/537.36" etag="cZ8hIVwFTFPX2sd1Uz4r" version="24.6.4" type="github">
  <diagram name="Page-1" id="E8Kcmhf85lVGr7ebwVz1">
    <mxGraphModel dx="1900" dy="522" grid="1" gridSize="10" guides="1" tooltips="1" connect="1" arrows="1" fold="1" page="1" pageScale="1" pageWidth="850" pageHeight="1100" math="0" shadow="0">
      <root>
        <mxCell id="0" />
        <mxCell id="1" parent="0" />
        <mxCell id="A5R_bwarFFOokBzkZVD5-1" value="Classe - ReprodutorMusical" style="swimlane;fontStyle=1;align=center;verticalAlign=top;childLayout=stackLayout;horizontal=1;startSize=26;horizontalStack=0;resizeParent=1;resizeParentMax=0;resizeLast=0;collapsible=1;marginBottom=0;whiteSpace=wrap;html=1;rounded=1;" vertex="1" parent="1">
          <mxGeometry x="-190" y="240" width="230" height="100" as="geometry">
            <mxRectangle x="140" y="70" width="130" height="30" as="alternateBounds" />
          </mxGeometry>
        </mxCell>
        <mxCell id="A5R_bwarFFOokBzkZVD5-3" value="" style="line;strokeWidth=1;fillColor=none;align=left;verticalAlign=middle;spacingTop=-1;spacingLeft=3;spacingRight=3;rotatable=0;labelPosition=right;points=[];portConstraint=eastwest;strokeColor=inherit;rounded=1;" vertex="1" parent="A5R_bwarFFOokBzkZVD5-1">
          <mxGeometry y="26" width="230" height="8" as="geometry" />
        </mxCell>
        <mxCell id="A5R_bwarFFOokBzkZVD5-4" value="+ tocarMusica(musica: String): void&lt;div&gt;+ pausar(musica: String): void&lt;/div&gt;&lt;div&gt;+ selecionarMusica(String musica): void&lt;br&gt;&lt;/div&gt;" style="text;strokeColor=none;fillColor=none;align=left;verticalAlign=top;spacingLeft=4;spacingRight=4;overflow=hidden;rotatable=0;points=[[0,0.5],[1,0.5]];portConstraint=eastwest;whiteSpace=wrap;html=1;rounded=1;" vertex="1" parent="A5R_bwarFFOokBzkZVD5-1">
          <mxGeometry y="34" width="230" height="66" as="geometry" />
        </mxCell>
        <mxCell id="A5R_bwarFFOokBzkZVD5-5" value="Classe&amp;nbsp;-&amp;nbsp;Telefone" style="swimlane;fontStyle=1;align=center;verticalAlign=top;childLayout=stackLayout;horizontal=1;startSize=26;horizontalStack=0;resizeParent=1;resizeParentMax=0;resizeLast=0;collapsible=1;marginBottom=0;whiteSpace=wrap;html=1;rounded=1;" vertex="1" parent="1">
          <mxGeometry x="155" y="360" width="210" height="110" as="geometry" />
        </mxCell>
        <mxCell id="A5R_bwarFFOokBzkZVD5-7" value="" style="line;strokeWidth=1;fillColor=none;align=left;verticalAlign=middle;spacingTop=-1;spacingLeft=3;spacingRight=3;rotatable=0;labelPosition=right;points=[];portConstraint=eastwest;strokeColor=inherit;rounded=1;" vertex="1" parent="A5R_bwarFFOokBzkZVD5-5">
          <mxGeometry y="26" width="210" height="8" as="geometry" />
        </mxCell>
        <mxCell id="A5R_bwarFFOokBzkZVD5-8" value="+ ligar(String numeroTelefone): void&lt;div&gt;+ atender(): void&lt;/div&gt;&lt;div&gt;+ iniciarCorreioVoz(): void&lt;br&gt;&lt;div&gt;- verificarConexaoRede(): void&lt;/div&gt;&lt;/div&gt;" style="text;strokeColor=none;fillColor=none;align=left;verticalAlign=top;spacingLeft=4;spacingRight=4;overflow=hidden;rotatable=0;points=[[0,0.5],[1,0.5]];portConstraint=eastwest;whiteSpace=wrap;html=1;rounded=1;" vertex="1" parent="A5R_bwarFFOokBzkZVD5-5">
          <mxGeometry y="34" width="210" height="76" as="geometry" />
        </mxCell>
        <mxCell id="A5R_bwarFFOokBzkZVD5-9" value="Classe&amp;nbsp;- NavegadorInternet" style="swimlane;fontStyle=1;align=center;verticalAlign=top;childLayout=stackLayout;horizontal=1;startSize=26;horizontalStack=0;resizeParent=1;resizeParentMax=0;resizeLast=0;collapsible=1;marginBottom=0;whiteSpace=wrap;html=1;rounded=1;" vertex="1" parent="1">
          <mxGeometry x="480" y="240" width="240" height="100" as="geometry" />
        </mxCell>
        <mxCell id="A5R_bwarFFOokBzkZVD5-11" value="" style="line;strokeWidth=1;fillColor=none;align=left;verticalAlign=middle;spacingTop=-1;spacingLeft=3;spacingRight=3;rotatable=0;labelPosition=right;points=[];portConstraint=eastwest;strokeColor=inherit;rounded=1;" vertex="1" parent="A5R_bwarFFOokBzkZVD5-9">
          <mxGeometry y="26" width="240" height="8" as="geometry" />
        </mxCell>
        <mxCell id="A5R_bwarFFOokBzkZVD5-12" value="+ acessarURL(enderecoURL: String): void&lt;div&gt;+ adicionarNovaAba(): void&lt;/div&gt;&lt;div&gt;+&amp;nbsp;atualizarPagina(): void&lt;/div&gt;&lt;div&gt;- verificarConexaoInternet(): void&lt;br&gt;&lt;/div&gt;" style="text;strokeColor=none;fillColor=none;align=left;verticalAlign=top;spacingLeft=4;spacingRight=4;overflow=hidden;rotatable=0;points=[[0,0.5],[1,0.5]];portConstraint=eastwest;whiteSpace=wrap;html=1;rounded=1;" vertex="1" parent="A5R_bwarFFOokBzkZVD5-9">
          <mxGeometry y="34" width="240" height="66" as="geometry" />
        </mxCell>
        <mxCell id="A5R_bwarFFOokBzkZVD5-25" value="Entidade - iPhone" style="swimlane;fontStyle=1;align=center;verticalAlign=top;childLayout=stackLayout;horizontal=1;startSize=26;horizontalStack=0;resizeParent=1;resizeParentMax=0;resizeLast=0;collapsible=1;marginBottom=0;whiteSpace=wrap;html=1;rounded=1;arcSize=25;" vertex="1" parent="1">
          <mxGeometry x="125" y="30" width="270" height="250" as="geometry" />
        </mxCell>
        <mxCell id="A5R_bwarFFOokBzkZVD5-26" value="&lt;div style=&quot;text-align: center;&quot;&gt;&lt;span style=&quot;background-color: initial;&quot;&gt;+&amp;nbsp;&lt;/span&gt;&lt;span style=&quot;background-color: initial; text-align: center;&quot;&gt;ReprodutorMusical:&amp;nbsp;&lt;/span&gt;&lt;span style=&quot;background-color: initial;&quot;&gt;musica&lt;/span&gt;&lt;/div&gt;&lt;div&gt;+ Telefone: telefone&lt;div&gt;+ NavegadorInternet: navegador&lt;/div&gt;&lt;/div&gt;" style="text;strokeColor=none;fillColor=none;align=left;verticalAlign=top;spacingLeft=4;spacingRight=4;overflow=hidden;rotatable=0;points=[[0,0.5],[1,0.5]];portConstraint=eastwest;whiteSpace=wrap;html=1;rounded=1;" vertex="1" parent="A5R_bwarFFOokBzkZVD5-25">
          <mxGeometry y="26" width="270" height="64" as="geometry" />
        </mxCell>
        <mxCell id="A5R_bwarFFOokBzkZVD5-28" value="" style="line;strokeWidth=1;fillColor=none;align=left;verticalAlign=middle;spacingTop=-1;spacingLeft=3;spacingRight=3;rotatable=0;labelPosition=right;points=[];portConstraint=eastwest;strokeColor=inherit;rounded=1;" vertex="1" parent="A5R_bwarFFOokBzkZVD5-25">
          <mxGeometry y="90" width="270" height="8" as="geometry" />
        </mxCell>
        <mxCell id="A5R_bwarFFOokBzkZVD5-29" value="+ tocarMusica(musica: String): void&lt;div&gt;+ pausar(musica: String): void&lt;/div&gt;&lt;div&gt;+ selecionarMusica(String musica): void&lt;/div&gt;&lt;div&gt;+ ligar(String numeroTelefone): void&lt;div&gt;+ atender(): void&lt;/div&gt;&lt;div&gt;+ iniciarCorreioVoz(): void&lt;/div&gt;&lt;/div&gt;&lt;div&gt;+ acessarURL(enderecoURL: String): void&lt;div&gt;+ adicionarNovaAba(): void&lt;/div&gt;&lt;div&gt;+&amp;nbsp;atualizarPagina(): void&lt;/div&gt;&lt;/div&gt;" style="text;strokeColor=none;fillColor=none;align=left;verticalAlign=top;spacingLeft=4;spacingRight=4;overflow=hidden;rotatable=0;points=[[0,0.5],[1,0.5]];portConstraint=eastwest;whiteSpace=wrap;html=1;rounded=1;" vertex="1" parent="A5R_bwarFFOokBzkZVD5-25">
          <mxGeometry y="98" width="270" height="152" as="geometry" />
        </mxCell>
        <mxCell id="A5R_bwarFFOokBzkZVD5-35" value="" style="html=1;verticalAlign=bottom;endArrow=block;curved=0;rounded=0;entryX=0.5;entryY=0;entryDx=0;entryDy=0;" edge="1" parent="1" target="A5R_bwarFFOokBzkZVD5-9">
          <mxGeometry width="80" relative="1" as="geometry">
            <mxPoint x="400" y="120" as="sourcePoint" />
            <mxPoint x="610" y="110" as="targetPoint" />
            <Array as="points">
              <mxPoint x="600" y="120" />
            </Array>
          </mxGeometry>
        </mxCell>
        <mxCell id="A5R_bwarFFOokBzkZVD5-36" value="" style="html=1;verticalAlign=bottom;endArrow=block;curved=0;rounded=0;" edge="1" parent="1">
          <mxGeometry x="-0.2121" y="60" width="80" relative="1" as="geometry">
            <mxPoint x="130" y="120" as="sourcePoint" />
            <mxPoint x="-79" y="240" as="targetPoint" />
            <Array as="points">
              <mxPoint x="-80" y="120" />
            </Array>
            <mxPoint as="offset" />
          </mxGeometry>
        </mxCell>
        <mxCell id="A5R_bwarFFOokBzkZVD5-37" value="" style="html=1;verticalAlign=bottom;endArrow=block;curved=0;rounded=0;entryX=0.5;entryY=0;entryDx=0;entryDy=0;" edge="1" parent="1" source="A5R_bwarFFOokBzkZVD5-29" target="A5R_bwarFFOokBzkZVD5-5">
          <mxGeometry x="0.2" y="30" width="80" relative="1" as="geometry">
            <mxPoint x="260" y="200" as="sourcePoint" />
            <mxPoint x="170" y="210" as="targetPoint" />
            <mxPoint as="offset" />
          </mxGeometry>
        </mxCell>
      </root>
    </mxGraphModel>
  </diagram>
</mxfile>
